<?xml version="1.0" encoding="UTF-8"?>
<svg version="1.1" xmlns="http://www.w3.org/2000/svg" width="423" height="379">
<path d="M0 0 C139.59 0 279.18 0 423 0 C423 125.07 423 250.14 423 379 C283.41 379 143.82 379 0 379 C0 253.93 0 128.86 0 0 Z " fill="#FDFDFD" transform="translate(0,0)"/>
<path d="M0 0 C-0.33 3.3 -0.66 6.6 -1 10 C-1.99 10.33 -2.98 10.66 -4 11 C-4.04970947 11.67587158 -4.09941895 12.35174316 -4.15063477 13.0480957 C-4.67753644 19.54617404 -5.60216678 25.81069425 -6.9375 32.1875 C-7.14713379 33.2094043 -7.35676758 34.23130859 -7.57275391 35.28417969 C-8.07316406 37.71591923 -8.57669551 40.14701754 -9.08251953 42.57763672 C-9.96298844 46.81109741 -10.82887006 51.04748823 -11.69468689 55.28396606 C-19.61703037 94.0137165 -19.61703037 94.0137165 -23.875 111.6875 C-24.13651855 112.77579102 -24.39803711 113.86408203 -24.66748047 114.98535156 C-25.97781601 120.2955262 -27.45942065 125.49933339 -29.1328125 130.70703125 C-30.53613618 135.15614859 -31.36971439 139.23057125 -31.73486328 143.86425781 C-32.23107572 147.8613724 -33.6145867 151.58708996 -34.9375 155.375 C-35.20240234 156.16777344 -35.46730469 156.96054688 -35.74023438 157.77734375 C-36.91822916 161.23240538 -37.95500269 163.93250404 -40 167 C-49.58767922 169.21254136 -57.10207792 163.79288806 -64.875 159 C-69.47437673 156.17352678 -74.21269337 154.12831272 -79.23828125 152.17578125 C-82 151 -82 151 -84.48046875 149.23046875 C-86.95213533 147.72399151 -86.95213533 147.72399151 -89.7265625 148.4375 C-94.21514872 150.58002326 -98.24911288 153.23333096 -102.375 156 C-104.15824906 157.17539772 -105.94211162 158.34986515 -107.7265625 159.5234375 C-108.6124707 160.10834961 -109.49837891 160.69326172 -110.41113281 161.29589844 C-114.17092187 163.77075015 -117.9496283 166.21299655 -121.75 168.625 C-122.36794434 169.02589844 -122.98588867 169.42679688 -123.62255859 169.83984375 C-128.61186667 172.99184082 -133.97722696 176 -140 176 C-141.02347394 163.6045934 -137.61147671 151.28267944 -134.5859375 139.35546875 C-134.35350342 138.42847168 -134.12106934 137.50147461 -133.8815918 136.54638672 C-133.43177336 134.7746432 -132.96793373 133.00637702 -132.48754883 131.24267578 C-131.07518877 125.71652384 -130.29638213 120.55876637 -132 115 C-133.96740292 112.45709071 -133.96740292 112.45709071 -136.75 110.6875 C-137.74773437 109.94371094 -138.74546875 109.19992188 -139.7734375 108.43359375 C-140.30291992 108.04284668 -140.83240234 107.65209961 -141.37792969 107.24951172 C-144.19298878 105.08101797 -146.77804501 102.67198982 -149.375 100.25 C-150.18191284 99.49976563 -150.18191284 99.49976563 -151.00512695 98.734375 C-175.30372603 75.97357077 -175.30372603 75.97357077 -177 69 C-176.50145641 65.3606318 -176.06236893 65.04836774 -172.9375 62.625 C-163.62645313 57.20189923 -152.68464298 54.01601826 -142.35546875 51.15234375 C-138.46442152 49.81607025 -134.82485306 48.11508671 -131.09350586 46.38891602 C-125.53802733 43.89462848 -119.85992147 41.71196556 -114.1875 39.5 C-113.01896484 39.03980469 -111.85042969 38.57960937 -110.64648438 38.10546875 C-104.77493023 35.80607358 -98.88718109 33.58482494 -92.94140625 31.484375 C-88.35432226 29.86332959 -83.81525232 28.16314492 -79.296875 26.359375 C-77.67265625 25.71355469 -77.67265625 25.71355469 -76.015625 25.0546875 C-73.81966923 24.17735589 -71.62698727 23.29178962 -69.4375 22.3984375 C-62.90487714 19.81977058 -57.03963004 18.20948927 -50 18 C-50 17.01 -50 16.02 -50 15 C-40.68371571 11.26063624 -31.43486894 8.11307145 -21.64916992 5.82543945 C-16.98082081 4.69230608 -13.01523346 3.18050252 -8.82421875 0.81591797 C-5.81759235 -0.52885524 -3.24285686 -0.27023807 0 0 Z " fill="#13110B" transform="translate(294,40)"/>
<path d="M0 0 C0.33 0 0.66 0 1 0 C1.2610513 5.2210259 0.98783648 9.57606928 -0.37109375 14.6328125 C-1.87542985 20.43215003 -3.10920461 26.24487081 -4.25 32.125 C-4.6814592 34.31136236 -5.1138014 36.4975506 -5.546875 38.68359375 C-5.77826172 39.8526123 -6.00964844 41.02163086 -6.24804688 42.22607422 C-17.14118762 96.89690852 -17.14118762 96.89690852 -21.90234375 111.52734375 C-23.37815319 116.19636365 -24.67839118 120.91042653 -26 125.625 C-28.04458432 132.87661351 -30.21080268 139.99419262 -33 147 C-38.39028783 146.50243497 -42.46950606 145.0650538 -47.25 142.5 C-48.66412357 141.76323812 -50.07954488 141.028963 -51.49609375 140.296875 C-52.2319873 139.91595703 -52.96788086 139.53503906 -53.72607422 139.14257812 C-55.99469478 138.00266571 -58.28418356 136.93620717 -60.59765625 135.890625 C-75.0197659 129.36404998 -88.18996239 121.28558282 -101 112 C-100.53902421 107.04451024 -99.30992196 104.67327532 -96 101 C-94.30860447 99.69934689 -92.57470675 98.45297329 -90.8125 97.25 C-78.68425222 88.36587249 -67.94947148 77.05823525 -59 65 C-56.41127006 61.63153212 -53.68892905 58.67484273 -50.4375 55.9375 C-46.14391896 52.2814996 -42.42239675 48.21389075 -38.64111328 44.04516602 C-35.29845446 40.37138982 -31.86436929 36.84727558 -28.3125 33.375 C-23.11225825 28.21926816 -18.54728776 22.73073016 -14 17 C-11.67290444 14.11992437 -9.33607542 11.24779305 -7 8.375 C-6.1349585 7.3072937 -6.1349585 7.3072937 -5.25244141 6.21801758 C-4.71538574 5.55568115 -4.17833008 4.89334473 -3.625 4.2109375 C-3.14289063 3.61587402 -2.66078125 3.02081055 -2.1640625 2.40771484 C-1 1 -1 1 0 0 Z " fill="#FAC91C" transform="translate(284,55)"/>
<path d="M0 0 C0.99 0.33 1.98 0.66 3 1 C-4.01616746 9.38517574 -11.6775495 16.68284336 -20.0390625 23.71484375 C-24.2310612 27.28370751 -27.86190403 31.02245082 -31.41015625 35.23046875 C-33 37 -33 37 -35.625 39 C-37.91581777 40.9291097 -38.84865664 42.26901138 -40.3125 44.8125 C-42.61099022 48.68364142 -45.25212938 51.18174915 -48.70703125 54.02734375 C-51.39692096 56.34147374 -53.835614 58.8345135 -56.3125 61.375 C-60.68089395 65.82352023 -65.29842059 69.79484813 -70.171875 73.6796875 C-73.27859021 76.22856711 -76.23959715 78.89604446 -79.1875 81.625 C-79.9467981 82.32725708 -79.9467981 82.32725708 -80.72143555 83.04370117 C-81.21426025 83.4997876 -81.70708496 83.95587402 -82.21484375 84.42578125 C-87.74105114 89.533454 -93.30655084 94.36182203 -99.43359375 98.73828125 C-101.14031646 99.93394411 -101.14031646 99.93394411 -102 102 C-110.22566851 99.42947859 -116.52644391 92.77745062 -122.45703125 86.80859375 C-123.12667404 86.14086441 -123.79631683 85.47313507 -124.48625183 84.78517151 C-125.88774093 83.3850331 -127.28674913 81.98240729 -128.68334961 80.57739258 C-130.81727922 78.43269666 -132.9617476 76.29895448 -135.10742188 74.16601562 C-136.47460048 72.79751622 -137.84115898 71.42839698 -139.20703125 70.05859375 C-140.16329155 69.10840614 -140.16329155 69.10840614 -141.13887024 68.13902283 C-149 60.19454377 -149 60.19454377 -149 56 C-137.02662064 50.78534949 -124.98167875 46.13856161 -112.62841797 41.91064453 C-107.98463851 40.30175568 -103.36736644 38.62042062 -98.75 36.9375 C-97.82533936 36.60065186 -96.90067871 36.26380371 -95.94799805 35.91674805 C-89.31376019 33.49330102 -82.69702439 31.0260494 -76.09375 28.51953125 C-72.58244767 27.20007676 -69.04765378 25.95101415 -65.51171875 24.69921875 C-58.39919839 22.16510587 -51.34376293 19.49824347 -44.3034668 16.77050781 C-42.3046274 15.99695329 -40.30374697 15.22885017 -38.30273438 14.4609375 C-32.45218585 12.20366442 -26.66261977 9.89309815 -20.98046875 7.23046875 C-17.02864841 5.39423974 -13.29977265 4.13978469 -9 3.3125 C-5.26256354 2.58028589 -3.20126293 2.13417528 0 0 Z " fill="#F7F5EA" transform="translate(272,51)"/>
<path d="M0 0 C4.37477474 -0.11651725 8.74914827 -0.18736 13.125 -0.25 C14.3625 -0.28351563 15.6 -0.31703125 16.875 -0.3515625 C27.15520441 -0.46210233 27.15520441 -0.46210233 30.8125 1.84375 C33.26300132 4.25924415 33.81110417 5.59987502 34 9 C36.64 9.33 39.28 9.66 42 10 C43.22517308 15.66642551 43.09228867 21.23708518 43 27 C45.37590999 27.075439 45.37590999 27.075439 48 26 C49.61280068 23.52467588 50.87977311 21.27295284 52.125 18.625 C52.78926161 17.26057074 53.45838548 15.8984958 54.1328125 14.5390625 C54.56424561 13.62954834 54.56424561 13.62954834 55.00439453 12.70166016 C56.14289702 10.75576454 57.25038541 9.42567128 59 8 C62.59355868 7.60797542 65.00333308 7.43225581 68.1875 9.24609375 C70 11 70 11 70.56640625 12.99609375 C70.55481894 20.23816177 68.89481145 26.6508238 66.99926758 33.57739258 C64.24023346 44.1132164 63.31733041 54.88393442 62.30957031 65.70361328 C62 68 62 68 61 70 C54.9453125 69.609375 54.9453125 69.609375 53 69 C50.57382191 65.49314751 50.76940193 62.21057203 50.8046875 58.046875 C50.8075174 57.38665344 50.81034729 56.72643188 50.81326294 56.04620361 C50.82441585 53.94728103 50.84951054 51.84879258 50.875 49.75 C50.88503616 48.32292285 50.8941609 46.89583898 50.90234375 45.46875 C50.92433889 41.97902672 50.95883464 38.48955577 51 35 C50.19030762 35.63228516 50.19030762 35.63228516 49.36425781 36.27734375 C48.29449707 37.09912109 48.29449707 37.09912109 47.203125 37.9375 C46.49833008 38.48277344 45.79353516 39.02804687 45.06738281 39.58984375 C42.3574085 41.43830993 40.27295701 42 37 42 C34.75 41.375 34.75 41.375 33 40 C30.35541857 35.20307675 30.55611405 30.02659112 30.375 24.6875 C30.31699219 23.29047852 30.31699219 23.29047852 30.2578125 21.86523438 C30.16393687 19.57701593 30.07825491 17.28879705 30 15 C28.10042499 15.90888756 26.20549214 16.82748031 24.3125 17.75 C23.25675781 18.26046875 22.20101563 18.7709375 21.11328125 19.296875 C16.56048852 21.78748683 12.94721008 24.04346525 11 29 C11.65226562 28.95359375 12.30453125 28.9071875 12.9765625 28.859375 C19.09100208 28.60686127 22.29828967 29.02162972 27 33 C28 34 28 34 28.25 37.3125 C27.9837015 41.24040293 27.76164976 42.32784479 25 45 C22.26025391 45.50170898 22.26025391 45.50170898 18.9765625 45.49609375 C17.790625 45.49673828 16.6046875 45.49738281 15.3828125 45.49804688 C14.14273437 45.47806641 12.90265625 45.45808594 11.625 45.4375 C9.77648437 45.44813477 9.77648437 45.44813477 7.890625 45.45898438 C-2.32911686 45.3869363 -2.32911686 45.3869363 -7 42 C-8.75848859 39.60206101 -9.06814855 38.54695849 -8.69921875 35.5859375 C-6.43392286 27.20813931 3.01162446 21.58314081 9.57641602 16.56835938 C10.26018311 16.03533203 10.9439502 15.50230469 11.6484375 14.953125 C12.26895996 14.48036133 12.88948242 14.00759766 13.52880859 13.52050781 C15.25844697 11.73288953 15.61178056 10.42588218 16 8 C15.26394531 8.02320313 14.52789062 8.04640625 13.76953125 8.0703125 C12.79371094 8.08835937 11.81789063 8.10640625 10.8125 8.125 C9.84957031 8.14820313 8.88664062 8.17140625 7.89453125 8.1953125 C4.87187222 7.9913544 2.73230015 7.26874632 0 6 C0 4.02 0 2.04 0 0 Z " fill="#0D0D0D" transform="translate(257,258)"/>
<path d="M0 0 C0.99 0.33 1.98 0.66 3 1 C-4.01616746 9.38517574 -11.6775495 16.68284336 -20.0390625 23.71484375 C-24.2310612 27.28370751 -27.86190403 31.02245082 -31.41015625 35.23046875 C-33 37 -33 37 -35.625 39 C-37.91581777 40.9291097 -38.84865664 42.26901138 -40.3125 44.8125 C-42.61099022 48.68364142 -45.25212938 51.18174915 -48.70703125 54.02734375 C-51.39692096 56.34147374 -53.835614 58.8345135 -56.3125 61.375 C-60.6762355 65.81877633 -65.28864828 69.786476 -70.15625 73.66796875 C-76.04012402 78.49306874 -82.09987694 83.59889599 -87.03515625 89.38671875 C-89 91 -89 91 -91.359375 91.01171875 C-94.7297752 89.72039678 -97.3220944 87.92356237 -100.25 85.8125 C-101.39407185 84.99675115 -102.53860583 84.18165005 -103.68359375 83.3671875 C-104.24288574 82.9659668 -104.80217773 82.56474609 -105.37841797 82.15136719 C-107.65849743 80.53244898 -109.98138358 78.98172609 -112.3125 77.4375 C-113.38951172 76.72400391 -113.38951172 76.72400391 -114.48828125 75.99609375 C-114.98714844 75.66738281 -115.48601562 75.33867188 -116 75 C-115.8359375 73.2421875 -115.8359375 73.2421875 -115 71 C-112.6640625 69.0703125 -112.6640625 69.0703125 -109.625 67.125 C-108.64789063 66.48820312 -107.67078125 65.85140625 -106.6640625 65.1953125 C-103.75214662 63.40093589 -100.76276865 61.77865849 -97.75 60.16015625 C-92.12655568 57.11854486 -86.74617326 53.77603589 -81.375 50.3125 C-80.41408447 49.69802002 -79.45316895 49.08354004 -78.46313477 48.45043945 C-74.2305388 45.73981812 -70.00855271 43.01499442 -65.81640625 40.2421875 C-53.81420163 32.32292807 -41.40976307 25.1086124 -28.97111511 17.90336609 C-24.56636281 15.34711915 -20.2151187 12.71063856 -15.88842773 10.0246582 C-14 9 -14 9 -12 9 C-12 8.34 -12 7.68 -12 7 C-13.32 6.67 -14.64 6.34 -16 6 C-12.43478915 4.05090979 -9.08233126 3.31065953 -5.12109375 2.5625 C-2.72346278 2.04883659 -2.72346278 2.04883659 0 0 Z " fill="#FACA21" transform="translate(272,51)"/>
<path d="M0 0 C2.9375 2.625 2.9375 2.625 5 6 C5.12890625 9.2109375 5.12890625 9.2109375 5 12 C3.89205078 12.22042969 3.89205078 12.22042969 2.76171875 12.4453125 C-9.32358625 15.1172859 -19.88471796 20.41721669 -28 30 C-30.17686369 33.86823979 -31.62618944 37.78921478 -33 42 C-33.31710938 42.76570313 -33.63421875 43.53140625 -33.9609375 44.3203125 C-36.13605313 50.04745182 -36.30767905 55.69169005 -36.375 61.75 C-36.38893799 62.56670166 -36.40287598 63.38340332 -36.41723633 64.22485352 C-36.35886179 71.62932213 -33.92599754 76.43838987 -29 82 C-26.43106162 83.28446919 -24.23423663 83.32977144 -21.375 83.5625 C-19.87066406 83.68818359 -19.87066406 83.68818359 -18.3359375 83.81640625 C-17.56507812 83.87699219 -16.79421875 83.93757813 -16 84 C-15.731875 83.0925 -15.46375 82.185 -15.1875 81.25 C-14.0902583 78.24702272 -13.15380764 76.32611225 -11 74 C-7.52674819 72.8422494 -4.63932552 72.93133348 -1 73 C-0.41259544 80.40129747 -1.52603745 85.01593422 -6 91 C-10.80835869 96.24236731 -16.25016204 99.59092677 -23.4375 100.375 C-34.57366553 99.20277205 -41.74786024 92.10291834 -48.80859375 83.8984375 C-55.36998272 75.05905888 -54.84404066 65.5472702 -54 55 C-51.07370302 37.65249094 -41.39608896 20.35303151 -27 10 C-9.31057629 -1.35426564 -9.31057629 -1.35426564 0 0 Z " fill="#0C0C0C" transform="translate(140,227)"/>
<path d="M0 0 C2.50833134 1.07174157 4.66578767 2.14385661 7 3.5 C13.76151064 7.15767865 20.62220282 9.72227239 27.9375 12.0625 C35.35814834 14.44860763 42.70763664 16.89188896 49.9375 19.8125 C50.64704834 20.09037354 51.35659668 20.36824707 52.08764648 20.65454102 C54.02734375 21.45703125 54.02734375 21.45703125 57 23 C59.51153387 30.5346016 54.99361519 40.87234479 52 48 C46.60971217 47.50243497 42.53049394 46.0650538 37.75 43.5 C36.33587643 42.76323812 34.92045512 42.028963 33.50390625 41.296875 C32.7680127 40.91595703 32.03211914 40.53503906 31.27392578 40.14257812 C29.00530522 39.00266571 26.71581644 37.93620717 24.40234375 36.890625 C9.9802341 30.36404998 -3.18996239 22.28558282 -16 13 C-15.54617044 8.12133225 -14.3639156 5.56179299 -11 2 C-7.27179838 -0.48546775 -4.31968816 -0.58504125 0 0 Z " fill="#F9F6EC" transform="translate(199,154)"/>
<path d="M0 0 C5.7966055 0.61375823 8.26126444 1.38156196 12 6 C13.22318866 9.66956597 13.23116124 13.12321003 13.31640625 16.94921875 C13.33718735 17.72183548 13.35796844 18.49445221 13.37937927 19.29048157 C13.44471038 21.7560648 13.50368315 24.22175361 13.5625 26.6875 C13.60570087 28.36003691 13.64931566 30.03256319 13.69335938 31.70507812 C13.8003749 35.8032775 13.90168857 39.90158296 14 44 C15.37478516 42.77990234 15.37478516 42.77990234 16.77734375 41.53515625 C19.30137842 39.29511986 20.00757182 38.99880445 23.5625 38.4375 C27.77333788 39.1265462 29.172944 39.79090941 32 43 C34.58524375 48.0807221 36.07771214 53.23131998 37.29296875 58.78515625 C38.60184147 62.8853266 40.79665426 66.59762758 42.85546875 70.36328125 C44 73 44 73 43 76 C34.11590296 76.77628032 34.11590296 76.77628032 30.125 74 C25.72788316 67.79230564 23.21368617 61.2447911 21 54 C19.35 54 17.7 54 16 54 C15.81824219 54.81984375 15.63648438 55.6396875 15.44921875 56.484375 C15.19785156 57.56203125 14.94648438 58.6396875 14.6875 59.75 C14.44386719 60.81734375 14.20023438 61.8846875 13.94921875 62.984375 C12.73660182 66.8368041 11.37530257 69.19099849 7.875 71.25 C3.97952375 72.26621119 -0.01139751 72.72876234 -4 72 C-8.32579322 65.51131017 -5.90750747 56.99753216 -4.6875 49.6875 C-1.95653144 33.28346009 -1.19045259 16.57191664 0 0 Z " fill="#0D0D0D" transform="translate(155,234)"/>
<path d="M0 0 C0.66 0 1.32 0 2 0 C2.24487175 9.12827462 1.89619419 18.07195533 1.0859375 27.1640625 C-0.17163593 42.07048746 -0.83629102 56.99490605 -1.5 71.9375 C-2.17705624 87.16007441 -2.87276636 102.37154149 -4.03125 117.56640625 C-4.11242065 118.63648422 -4.19359131 119.70656219 -4.27722168 120.80906677 C-4.65873413 125.58603761 -5.09380013 130.28725724 -6 135 C-14.24811184 135.96615627 -20.32507405 133.97893751 -27 129 C-28.39381299 124.81856104 -26.89932314 121.80491599 -25.625 117.75 C-17.35491064 90.07041585 -11.89116952 61.49873865 -6.41723633 33.15765381 C-5.83908113 30.16784041 -5.25689541 27.17881568 -4.67500305 24.18972778 C-3.10606326 16.12851657 -1.54838513 8.06518651 0 0 Z " fill="#F9C921" transform="translate(290,51)"/>
<path d="M0 0 C2.03125 0.0859375 2.03125 0.0859375 4.5 0.375 C5.3146875 0.46523437 6.129375 0.55546875 6.96875 0.6484375 C9 1 9 1 10 2 C10.05050121 3.53953872 10.03565814 5.08134048 9.9921875 6.62109375 C9.97542969 7.55630859 9.95867187 8.49152344 9.94140625 9.45507812 C9.89721813 11.43964463 9.84516345 13.42405193 9.78515625 15.40820312 C9.77097656 16.34470703 9.75679687 17.28121094 9.7421875 18.24609375 C9.7201123 19.10904053 9.69803711 19.9719873 9.67529297 20.86108398 C9.78244629 21.56692627 9.88959961 22.27276855 10 23 C10.99 23.66 11.98 24.32 13 25 C12.67 26.98 12.34 28.96 12 31 C10.02 31 8.04 31 6 31 C4.30822183 43.31512651 2.62442624 55.576071 2 68 C-1.465 68.495 -1.465 68.495 -5 69 C-7.86564149 64.19418371 -8.40841084 60.23483559 -8.29296875 54.7578125 C-8.28872391 53.98944061 -8.28447906 53.22106873 -8.28010559 52.42941284 C-8.26341826 49.99424015 -8.22578641 47.5599192 -8.1875 45.125 C-8.17244023 43.46615785 -8.15875409 41.80730263 -8.14648438 40.1484375 C-8.11354759 36.0986341 -8.06183594 32.04946106 -8 28 C-9.98 28.33 -11.96 28.66 -14 29 C-14.08636719 29.63421875 -14.17273438 30.2684375 -14.26171875 30.921875 C-15.7969551 41.1192247 -18.41085406 51.02808936 -21 61 C-25.42562755 58.9231502 -26.9194458 56.86508748 -29.0234375 52.45703125 C-31.41353676 43.99607987 -30.97159051 33.77453318 -29.2265625 25.19921875 C-28.66425579 21.8611963 -28.66425579 21.8611963 -30.9375 19.0625 C-31.618125 18.381875 -32.29875 17.70125 -33 17 C-23.64224564 17.40685889 -15.07017674 18.60438853 -6 21 C-5.97421875 20.2265625 -5.9484375 19.453125 -5.921875 18.65625 C-5.55486447 11.9166021 -5.07463149 5.07463149 0 0 Z " fill="#0D0D0D" transform="translate(233,244)"/>
<path d="M0 0 C4.78058164 1.38385258 8.96945557 3.4503763 13.33984375 5.78125 C20.6077071 9.11101999 27.14494802 9.38517027 35.0625 9.375 C36.26044189 9.37483887 37.45838379 9.37467773 38.69262695 9.37451172 C56.97143731 9.15496725 75.17662068 6.76144386 93.29150391 4.45605469 C112.65937389 2.01764374 131.96651698 1.81187847 151.46264648 1.81469727 C155.01061503 1.81480008 158.55838883 1.80098333 162.10631084 1.78392506 C164.87137245 1.77278488 167.63638653 1.77077843 170.40146828 1.77130699 C172.33957531 1.76957342 174.27766754 1.7587781 176.21574402 1.74775696 C185.97455925 1.77314403 192.3273337 2.73659894 200 9 C200 9.66 200 10.32 200 11 C197.08277452 11.08103404 194.16780484 11.14051081 191.25 11.1875 C190.425 11.21263672 189.6 11.23777344 188.75 11.26367188 C182.57702246 11.33834499 182.57702246 11.33834499 179.421875 9.48828125 C178.95265625 8.99714844 178.4834375 8.50601562 178 8 C178.99 7.67 179.98 7.34 181 7 C119.94868601 6.18866454 119.94868601 6.18866454 59.54345703 14.54150391 C54.32428758 15.4823371 48.9563915 15.22584918 43.66503906 15.24023438 C41.53409352 15.24984622 39.40415331 15.2808606 37.2734375 15.3125 C26.36525557 15.39873508 15.11702786 14.82294358 5.75 8.625 C4.85796875 8.06039063 3.9659375 7.49578125 3.046875 6.9140625 C0.62493191 4.64926839 0.29040662 3.25032028 0 0 Z " fill="#FED442" transform="translate(143,328)"/>
<path d="M0 0 C4.71701495 0.50384322 7.36865488 2.48903756 11.0625 5.375 C12.08472656 6.16648438 13.10695312 6.95796875 14.16015625 7.7734375 C15.09730469 8.50820312 16.03445312 9.24296875 17 10 C18.33043455 11.00385342 19.66244463 12.00565428 21 13 C19.6292748 16.34289105 18.49074743 17.57772585 15.25 19.125 C10.04113967 21.81426503 5.45616634 25.17972812 0.78613281 28.69775391 C-3.68433125 32 -3.68433125 32 -7 32 C-7.061875 32.598125 -7.12375 33.19625 -7.1875 33.8125 C-8.34270543 36.92266847 -10.06877187 37.60417708 -13 39 C-13.99 39 -14.98 39 -16 39 C-15.46696729 33.22040248 -13.80871109 28.68064904 -11.375 23.4375 C-11.02179688 22.65971191 -10.66859375 21.88192383 -10.3046875 21.08056641 C-7.04706619 13.96469985 -3.58003875 6.95870032 0 0 Z " fill="#F0EEE6" transform="translate(179,169)"/>
<path d="M0 0 C0.99 1.32 1.98 2.64 3 4 C-0.96165849 7.27861392 -5.09475832 10.16369527 -9.375 13 C-10.00921875 13.42539063 -10.6434375 13.85078125 -11.296875 14.2890625 C-15.43900581 17.04484749 -19.65567943 19.57526293 -24 22 C-24.07583002 19.15817985 -24.04658233 17.58878023 -23 15 C-20.2036203 12.25825784 -16.99477863 10.26393794 -13.6875 8.1875 C-12.81931641 7.61580078 -11.95113281 7.04410156 -11.05664062 6.45507812 C-7.45060538 4.0999469 -3.88553494 1.86684576 0 0 Z " fill="#242424" transform="translate(198,185)"/>
<path d="M0 0 C-0.33 0.66 -0.66 1.32 -1 2 C-3.48095703 2.41064453 -3.48095703 2.41064453 -6.7578125 2.6328125 C-7.94117188 2.71660156 -9.12453125 2.80039062 -10.34375 2.88671875 C-12.21546875 3.00466797 -12.21546875 3.00466797 -14.125 3.125 C-15.34960938 3.21136719 -16.57421875 3.29773438 -17.8359375 3.38671875 C-33.88967226 4.48129157 -33.88967226 4.48129157 -40 3 C-40.33 2.01 -40.66 1.02 -41 0 C-34.00655317 -6.99344683 -9.15732292 -1.21518977 0 0 Z " fill="#FED956" transform="translate(278,333)"/>
<path d="M0 0 C2.54960259 0.05035122 3.89903688 0.13359476 6.1875 1.3125 C7.69168055 4.42113981 6.85265436 6.97555538 6.125 10.25 C5.125 11.25 5.125 11.25 1.75 11.5 C-1.875 11.25 -1.875 11.25 -3.8125 10.1875 C-5.44683566 7.20724086 -5.12122562 4.57404589 -4.875 1.25 C-3.875 0.25 -3.875 0.25 0 0 Z " fill="#171717" transform="translate(213.875,246.75)"/>
<path d="M0 0 C0.99 0.33 1.98 0.66 3 1 C-0.67832017 5.52615993 -4.41086363 9.39424999 -9 13 C-9.33 11.35 -9.66 9.7 -10 8 C-11.98 7.34 -13.96 6.68 -16 6 C-12.43478915 4.05090979 -9.08233126 3.31065953 -5.12109375 2.5625 C-2.72346278 2.04883659 -2.72346278 2.04883659 0 0 Z " fill="#D6BA55" transform="translate(272,51)"/>
<path d="M0 0 C9.57 0 19.14 0 29 0 C29 0.66 29 1.32 29 2 C36.26 2 43.52 2 51 2 C51 2.33 51 2.66 51 3 C13.9165649 3.41277905 13.9165649 3.41277905 0 1 C0 0.67 0 0.34 0 0 Z " fill="#FFD236" transform="translate(261,331)"/>
<path d="M0 0 C0.33 1.65 0.66 3.3 1 5 C0.37351563 5.26554687 -0.25296875 5.53109375 -0.8984375 5.8046875 C-1.71570313 6.15789062 -2.53296875 6.51109375 -3.375 6.875 C-4.18710938 7.22304687 -4.99921875 7.57109375 -5.8359375 7.9296875 C-8.13802299 8.92446067 -8.13802299 8.92446067 -10 11 C-10.33 9.35 -10.66 7.7 -11 6 C-9.54550599 4.9944239 -8.08627557 3.99569565 -6.625 3 C-5.40683594 2.1646875 -5.40683594 2.1646875 -4.1640625 1.3125 C-2 0 -2 0 0 0 Z " fill="#242423" transform="translate(128,100)"/>
</svg>
